<svg xmlns="http://www.w3.org/2000/svg" width="3840" height="2160" viewBox="0 0 3840 2160" fill="none">
  <defs>
    <radialGradient id="cookieGlow" cx="0" cy="0" r="1" gradientUnits="userSpaceOnUse" gradientTransform="translate(1920 1080) rotate(90) scale(980)">
      <stop offset="0" stop-color="#D7D7D7" stop-opacity="0.24"/>
      <stop offset="1" stop-color="#D7D7D7" stop-opacity="0"/>
    </radialGradient>
    <linearGradient id="cookieBody" x1="1040" y1="320" x2="2790" y2="1880" gradientUnits="userSpaceOnUse">
      <stop offset="0" stop-color="#BDBDBD"/>
      <stop offset="1" stop-color="#8E8E8E"/>
    </linearGradient>
    <linearGradient id="cookieEdge" x1="990" y1="260" x2="2860" y2="1930" gradientUnits="userSpaceOnUse">
      <stop offset="0" stop-color="#7A7A7A"/>
      <stop offset="1" stop-color="#575757"/>
    </linearGradient>
    <filter id="softShadow" x="626" y="-14" width="2648" height="2648" filterUnits="userSpaceOnUse" color-interpolation-filters="sRGB">
      <feFlood flood-opacity="0" result="BackgroundImageFix"/>
      <feColorMatrix in="SourceAlpha" type="matrix" values="0 0 0 0 0 0 0 0 0 0 0 0 0 0 0 0 0 0 127 0" result="hardAlpha"/>
      <feOffset dy="36"/>
      <feGaussianBlur stdDeviation="110"/>
      <feComposite in2="hardAlpha" operator="out"/>
      <feColorMatrix type="matrix" values="0 0 0 0 0.12 0 0 0 0 0.12 0 0 0 0 0.12 0 0 0 0.32 0"/>
      <feBlend mode="normal" in2="BackgroundImageFix" result="effect1_dropShadow_1_1"/>
      <feBlend mode="normal" in="SourceGraphic" in2="effect1_dropShadow_1_1" result="shape"/>
    </filter>
  </defs>

  <rect width="3840" height="2160" fill="url(#cookieGlow)"/>

  <g filter="url(#softShadow)">
    <circle cx="1920" cy="1080" r="980" fill="url(#cookieEdge)"/>
    <circle cx="1920" cy="1080" r="900" fill="url(#cookieBody)"/>
  </g>

  <circle cx="1240" cy="660" r="86" fill="#4A4A4A"/>
  <circle cx="1730" cy="560" r="74" fill="#3F3F3F"/>
  <circle cx="2180" cy="620" r="92" fill="#565656"/>
  <circle cx="2570" cy="820" r="78" fill="#3A3A3A"/>
  <circle cx="1420" cy="960" r="98" fill="#505050"/>
  <circle cx="1910" cy="940" r="88" fill="#5B5B5B"/>
  <circle cx="2320" cy="1080" r="102" fill="#404040"/>
  <circle cx="1160" cy="1220" r="76" fill="#4D4D4D"/>
  <circle cx="1630" cy="1330" r="94" fill="#585858"/>
  <circle cx="2040" cy="1420" r="84" fill="#464646"/>
  <circle cx="2480" cy="1380" r="96" fill="#5E5E5E"/>
  <circle cx="1360" cy="1560" r="80" fill="#454545"/>
  <circle cx="1820" cy="1680" r="88" fill="#616161"/>
  <circle cx="2240" cy="1640" r="74" fill="#4B4B4B"/>
  <circle cx="2660" cy="1520" r="82" fill="#595959"/>

  <circle cx="1540" cy="760" r="24" fill="#F4F4F4" opacity="0.62"/>
  <circle cx="2090" cy="850" r="28" fill="#F4F4F4" opacity="0.45"/>
  <circle cx="1780" cy="1180" r="21" fill="#F4F4F4" opacity="0.55"/>
  <circle cx="2290" cy="1320" r="18" fill="#F4F4F4" opacity="0.5"/>
  <circle cx="1530" cy="1460" r="23" fill="#F4F4F4" opacity="0.44"/>
</svg>
